<mxfile host="app.diagrams.net" modified="2024-06-03T00:04:55.526Z" agent="Mozilla/5.0 (Windows NT 10.0; Win64; x64) AppleWebKit/537.36 (KHTML, like Gecko) Chrome/125.0.0.0 Safari/537.36" etag="5hmfzp5f5SczF1M3iDbx" version="24.4.13" type="github">
  <diagram id="C5RBs43oDa-KdzZeNtuy" name="Page-1">
    <mxGraphModel dx="1801" dy="439" grid="1" gridSize="10" guides="1" tooltips="1" connect="1" arrows="1" fold="1" page="1" pageScale="1" pageWidth="827" pageHeight="1169" math="0" shadow="0">
      <root>
        <mxCell id="WIyWlLk6GJQsqaUBKTNV-0" />
        <mxCell id="WIyWlLk6GJQsqaUBKTNV-1" parent="WIyWlLk6GJQsqaUBKTNV-0" />
        <mxCell id="48kii7HsobEptYmwwad2-14" style="edgeStyle=orthogonalEdgeStyle;rounded=0;orthogonalLoop=1;jettySize=auto;html=1;" parent="WIyWlLk6GJQsqaUBKTNV-1" source="48kii7HsobEptYmwwad2-1" target="48kii7HsobEptYmwwad2-4" edge="1">
          <mxGeometry relative="1" as="geometry" />
        </mxCell>
        <mxCell id="48kii7HsobEptYmwwad2-1" value="&lt;span style=&quot;white-space-collapse: preserve;&quot;&gt;&lt;font style=&quot;font-size: 9px;&quot;&gt;You and your friends are the intelligent thieves from the City of Alegria, one of the well-known places in the Philippines because of its captivating scenery that has been through an unsolved crime called the Purge Planet.&lt;/font&gt;&lt;/span&gt;" style="rounded=0;whiteSpace=wrap;html=1;" parent="WIyWlLk6GJQsqaUBKTNV-1" vertex="1">
          <mxGeometry x="-110" y="170" width="240" height="80" as="geometry" />
        </mxCell>
        <mxCell id="48kii7HsobEptYmwwad2-22" style="edgeStyle=orthogonalEdgeStyle;rounded=0;orthogonalLoop=1;jettySize=auto;html=1;" parent="WIyWlLk6GJQsqaUBKTNV-1" source="48kii7HsobEptYmwwad2-2" target="48kii7HsobEptYmwwad2-1" edge="1">
          <mxGeometry relative="1" as="geometry">
            <mxPoint x="60" y="120" as="targetPoint" />
          </mxGeometry>
        </mxCell>
        <mxCell id="48kii7HsobEptYmwwad2-2" value="&lt;b&gt;&lt;font style=&quot;font-size: 9px;&quot;&gt;START&lt;/font&gt;&lt;/b&gt;" style="ellipse;whiteSpace=wrap;html=1;" parent="WIyWlLk6GJQsqaUBKTNV-1" vertex="1">
          <mxGeometry x="-20" y="100" width="60" height="40" as="geometry" />
        </mxCell>
        <mxCell id="48kii7HsobEptYmwwad2-15" style="edgeStyle=orthogonalEdgeStyle;rounded=0;orthogonalLoop=1;jettySize=auto;html=1;" parent="WIyWlLk6GJQsqaUBKTNV-1" source="48kii7HsobEptYmwwad2-4" target="48kii7HsobEptYmwwad2-5" edge="1">
          <mxGeometry relative="1" as="geometry" />
        </mxCell>
        <mxCell id="48kii7HsobEptYmwwad2-4" value="&lt;span&gt;&lt;/span&gt;&lt;span&gt;&lt;/span&gt;&lt;span style=&quot;white-space-collapse: preserve;&quot;&gt;&lt;font style=&quot;font-size: 9px;&quot;&gt;There are a lot of different citizens living in this place, some of whom are Spanish and French. &lt;br&gt;In addition to their daily lives, the citizens of Alegria or the persons who are responsible for making their town’s safety by patrolling&lt;/font&gt;&lt;/span&gt;" style="rounded=0;whiteSpace=wrap;html=1;" parent="WIyWlLk6GJQsqaUBKTNV-1" vertex="1">
          <mxGeometry x="-110" y="290" width="240" height="80" as="geometry" />
        </mxCell>
        <mxCell id="48kii7HsobEptYmwwad2-33" style="edgeStyle=orthogonalEdgeStyle;rounded=0;orthogonalLoop=1;jettySize=auto;html=1;" parent="WIyWlLk6GJQsqaUBKTNV-1" source="48kii7HsobEptYmwwad2-5" target="48kii7HsobEptYmwwad2-6" edge="1">
          <mxGeometry relative="1" as="geometry" />
        </mxCell>
        <mxCell id="48kii7HsobEptYmwwad2-5" value="&lt;span&gt;&lt;/span&gt;&lt;span&gt;&lt;/span&gt;&lt;span&gt;&lt;/span&gt;&lt;span style=&quot;white-space-collapse: preserve;&quot;&gt;&lt;font style=&quot;font-size: 9px;&quot;&gt;in every Urbano-&lt;/font&gt;&lt;/span&gt;" style="rounded=0;whiteSpace=wrap;html=1;" parent="WIyWlLk6GJQsqaUBKTNV-1" vertex="1">
          <mxGeometry x="-110" y="410" width="240" height="80" as="geometry" />
        </mxCell>
        <mxCell id="48kii7HsobEptYmwwad2-17" style="edgeStyle=orthogonalEdgeStyle;rounded=0;orthogonalLoop=1;jettySize=auto;html=1;" parent="WIyWlLk6GJQsqaUBKTNV-1" source="48kii7HsobEptYmwwad2-6" target="48kii7HsobEptYmwwad2-7" edge="1">
          <mxGeometry relative="1" as="geometry" />
        </mxCell>
        <mxCell id="48kii7HsobEptYmwwad2-6" value="&lt;span&gt;&lt;/span&gt;&lt;span&gt;&lt;/span&gt;&lt;span&gt;&lt;/span&gt;&lt;span style=&quot;white-space-collapse: preserve;&quot;&gt;&lt;font style=&quot;font-size: 9px;&quot;&gt;Suburbano, Ciudad Costera (Coastal Town),&lt;/font&gt;&lt;/span&gt;" style="rounded=0;whiteSpace=wrap;html=1;" parent="WIyWlLk6GJQsqaUBKTNV-1" vertex="1">
          <mxGeometry x="-110" y="530" width="240" height="80" as="geometry" />
        </mxCell>
        <mxCell id="48kii7HsobEptYmwwad2-18" style="edgeStyle=orthogonalEdgeStyle;rounded=0;orthogonalLoop=1;jettySize=auto;html=1;" parent="WIyWlLk6GJQsqaUBKTNV-1" source="48kii7HsobEptYmwwad2-7" target="48kii7HsobEptYmwwad2-8" edge="1">
          <mxGeometry relative="1" as="geometry" />
        </mxCell>
        <mxCell id="48kii7HsobEptYmwwad2-7" value="&lt;span&gt;&lt;/span&gt;&lt;span&gt;&lt;/span&gt;&lt;span&gt;&lt;/span&gt;&lt;span style=&quot;white-space-collapse: preserve;&quot;&gt;&lt;font style=&quot;font-size: 9px;&quot;&gt;Complejo Industrial Abandonado (Abandoned Industrial Complex),&lt;/font&gt;&lt;/span&gt;" style="rounded=0;whiteSpace=wrap;html=1;" parent="WIyWlLk6GJQsqaUBKTNV-1" vertex="1">
          <mxGeometry x="-110" y="640" width="240" height="80" as="geometry" />
        </mxCell>
        <mxCell id="48kii7HsobEptYmwwad2-19" style="edgeStyle=orthogonalEdgeStyle;rounded=0;orthogonalLoop=1;jettySize=auto;html=1;" parent="WIyWlLk6GJQsqaUBKTNV-1" source="48kii7HsobEptYmwwad2-8" target="48kii7HsobEptYmwwad2-9" edge="1">
          <mxGeometry relative="1" as="geometry" />
        </mxCell>
        <mxCell id="48kii7HsobEptYmwwad2-8" value="&lt;span&gt;&lt;/span&gt;&lt;span&gt;&lt;/span&gt;&lt;span&gt;&lt;/span&gt;&lt;span style=&quot;white-space-collapse: preserve;&quot;&gt;&lt;font style=&quot;font-size: 9px;&quot;&gt;Pueblo del Campo (Rural Town),&lt;/font&gt;&lt;/span&gt;" style="rounded=0;whiteSpace=wrap;html=1;" parent="WIyWlLk6GJQsqaUBKTNV-1" vertex="1">
          <mxGeometry x="-110" y="760" width="240" height="80" as="geometry" />
        </mxCell>
        <mxCell id="48kii7HsobEptYmwwad2-20" style="edgeStyle=orthogonalEdgeStyle;rounded=0;orthogonalLoop=1;jettySize=auto;html=1;" parent="WIyWlLk6GJQsqaUBKTNV-1" source="48kii7HsobEptYmwwad2-9" target="48kii7HsobEptYmwwad2-10" edge="1">
          <mxGeometry relative="1" as="geometry" />
        </mxCell>
        <mxCell id="48kii7HsobEptYmwwad2-9" value="&lt;span&gt;&lt;/span&gt;&lt;span&gt;&lt;/span&gt;&lt;span&gt;&lt;/span&gt;&lt;span style=&quot;white-space-collapse: preserve;&quot;&gt;&lt;font style=&quot;font-size: 9px;&quot;&gt;and Distrito de Entretenimiento (Entertainment District) different places in the City of Alegria.&lt;/font&gt;&lt;/span&gt;" style="rounded=0;whiteSpace=wrap;html=1;" parent="WIyWlLk6GJQsqaUBKTNV-1" vertex="1">
          <mxGeometry x="-110" y="870" width="240" height="80" as="geometry" />
        </mxCell>
        <mxCell id="48kii7HsobEptYmwwad2-24" style="edgeStyle=orthogonalEdgeStyle;rounded=0;orthogonalLoop=1;jettySize=auto;html=1;" parent="WIyWlLk6GJQsqaUBKTNV-1" source="48kii7HsobEptYmwwad2-10" target="48kii7HsobEptYmwwad2-23" edge="1">
          <mxGeometry relative="1" as="geometry" />
        </mxCell>
        <mxCell id="48kii7HsobEptYmwwad2-10" value="&lt;span&gt;&lt;/span&gt;&lt;span&gt;&lt;/span&gt;&lt;span&gt;&lt;/span&gt;&lt;span style=&quot;white-space-collapse: preserve;&quot;&gt;&lt;font style=&quot;font-size: 9px;&quot;&gt;Today, it’s your turn to have a secret mission at the well-known casino that can be found in Distrito de Entretenimiento (Entertainment District) on the north-west side of the City of Alegria. This place has a lot of people who are popular since it earns a lot of money.&lt;/font&gt;&lt;/span&gt;" style="rounded=0;whiteSpace=wrap;html=1;" parent="WIyWlLk6GJQsqaUBKTNV-1" vertex="1">
          <mxGeometry x="-110" y="980" width="240" height="80" as="geometry" />
        </mxCell>
        <mxCell id="48kii7HsobEptYmwwad2-34" style="edgeStyle=orthogonalEdgeStyle;rounded=0;orthogonalLoop=1;jettySize=auto;html=1;" parent="WIyWlLk6GJQsqaUBKTNV-1" source="48kii7HsobEptYmwwad2-23" target="48kii7HsobEptYmwwad2-25" edge="1">
          <mxGeometry relative="1" as="geometry" />
        </mxCell>
        <mxCell id="48kii7HsobEptYmwwad2-23" value="&lt;span&gt;&lt;/span&gt;&lt;span id=&quot;docs-internal-guid-4f8be528-7fff-176c-a7bf-f8670c133f67&quot;&gt;&lt;span style=&quot;font-family: &amp;quot;Times New Roman&amp;quot;, serif; background-color: transparent; font-variant-numeric: normal; font-variant-east-asian: normal; font-variant-alternates: normal; font-variant-position: normal; vertical-align: baseline; white-space-collapse: preserve;&quot;&gt;&lt;font style=&quot;font-size: 9px;&quot;&gt;This place has a lot of people who are popular since it earns a lot of money. There’s a lot of rumors spreading through the place that there’s a shining rare mint green diamond that cost a billion bucks that can be seen on the lake before you hop in to the Coastal Town side. &lt;/font&gt;&lt;/span&gt;&lt;/span&gt;" style="rounded=0;whiteSpace=wrap;html=1;" parent="WIyWlLk6GJQsqaUBKTNV-1" vertex="1">
          <mxGeometry x="-110" y="1089" width="240" height="80" as="geometry" />
        </mxCell>
        <mxCell id="48kii7HsobEptYmwwad2-53" style="edgeStyle=orthogonalEdgeStyle;rounded=0;orthogonalLoop=1;jettySize=auto;html=1;" parent="WIyWlLk6GJQsqaUBKTNV-1" source="48kii7HsobEptYmwwad2-25" target="48kii7HsobEptYmwwad2-52" edge="1">
          <mxGeometry relative="1" as="geometry" />
        </mxCell>
        <mxCell id="48kii7HsobEptYmwwad2-25" value="&lt;span&gt;&lt;/span&gt;&lt;span id=&quot;docs-internal-guid-4ef7a682-7fff-d99e-86c1-4532dfaaa815&quot;&gt;&lt;span style=&quot;font-family: &amp;quot;Times New Roman&amp;quot;, serif; background-color: transparent; font-variant-numeric: normal; font-variant-east-asian: normal; font-variant-alternates: normal; font-variant-position: normal; vertical-align: baseline; white-space-collapse: preserve;&quot;&gt;&lt;font style=&quot;font-size: 8px;&quot;&gt;The more guards or dangerous and intimidating opponents that keep surrounding this place, especially the dangerous armies and special forces with their guard dogs. Today, there’s a lot of possibility that peoples might steal the shining mint green diamond since some of the people in Algeria are having a trouble sustaining their needs in everyday basis.&lt;/font&gt;&lt;/span&gt;&lt;/span&gt;" style="rounded=0;whiteSpace=wrap;html=1;" parent="WIyWlLk6GJQsqaUBKTNV-1" vertex="1">
          <mxGeometry x="-110" y="1200" width="240" height="80" as="geometry" />
        </mxCell>
        <mxCell id="48kii7HsobEptYmwwad2-28" style="edgeStyle=orthogonalEdgeStyle;rounded=0;orthogonalLoop=1;jettySize=auto;html=1;entryX=0;entryY=0.5;entryDx=0;entryDy=0;" parent="WIyWlLk6GJQsqaUBKTNV-1" source="48kii7HsobEptYmwwad2-26" target="48kii7HsobEptYmwwad2-40" edge="1">
          <mxGeometry relative="1" as="geometry">
            <mxPoint x="145" y="1612.5" as="targetPoint" />
          </mxGeometry>
        </mxCell>
        <mxCell id="48kii7HsobEptYmwwad2-31" value="&lt;font style=&quot;font-size: 8px;&quot;&gt;if intelligence&lt;/font&gt;" style="edgeLabel;html=1;align=center;verticalAlign=middle;resizable=0;points=[];" parent="48kii7HsobEptYmwwad2-28" vertex="1" connectable="0">
          <mxGeometry x="-0.3425" y="2" relative="1" as="geometry">
            <mxPoint x="10" y="2" as="offset" />
          </mxGeometry>
        </mxCell>
        <mxCell id="48kii7HsobEptYmwwad2-36" style="edgeStyle=orthogonalEdgeStyle;rounded=0;orthogonalLoop=1;jettySize=auto;html=1;entryX=1;entryY=0.5;entryDx=0;entryDy=0;" parent="WIyWlLk6GJQsqaUBKTNV-1" source="48kii7HsobEptYmwwad2-26" target="48kii7HsobEptYmwwad2-38" edge="1">
          <mxGeometry relative="1" as="geometry">
            <mxPoint x="-120" y="1612.5" as="targetPoint" />
          </mxGeometry>
        </mxCell>
        <mxCell id="48kii7HsobEptYmwwad2-37" value="&lt;font style=&quot;font-size: 8px;&quot;&gt;if investigate&lt;/font&gt;" style="edgeLabel;html=1;align=center;verticalAlign=middle;resizable=0;points=[];" parent="48kii7HsobEptYmwwad2-36" vertex="1" connectable="0">
          <mxGeometry x="0.4403" y="1" relative="1" as="geometry">
            <mxPoint x="26" y="-1" as="offset" />
          </mxGeometry>
        </mxCell>
        <mxCell id="48kii7HsobEptYmwwad2-26" value="&lt;font style=&quot;font-size: 8px;&quot;&gt;As a player how&amp;nbsp;&lt;/font&gt;&lt;div&gt;&lt;font style=&quot;font-size: 8px;&quot;&gt;will you respond in this&amp;nbsp;&lt;/font&gt;&lt;div&gt;&lt;font style=&quot;font-size: 8px;&quot;&gt;situation?&amp;nbsp;&lt;/font&gt;&lt;/div&gt;&lt;/div&gt;" style="rhombus;whiteSpace=wrap;html=1;" parent="WIyWlLk6GJQsqaUBKTNV-1" vertex="1">
          <mxGeometry x="-45" y="1557.5" width="110" height="110" as="geometry" />
        </mxCell>
        <mxCell id="48kii7HsobEptYmwwad2-50" style="edgeStyle=orthogonalEdgeStyle;rounded=0;orthogonalLoop=1;jettySize=auto;html=1;" parent="WIyWlLk6GJQsqaUBKTNV-1" source="48kii7HsobEptYmwwad2-38" target="48kii7HsobEptYmwwad2-48" edge="1">
          <mxGeometry relative="1" as="geometry" />
        </mxCell>
        <mxCell id="48kii7HsobEptYmwwad2-38" value="&lt;span&gt;&lt;/span&gt;&lt;span id=&quot;docs-internal-guid-4ef7a682-7fff-d99e-86c1-4532dfaaa815&quot;&gt;&lt;span style=&quot;font-family: &amp;quot;Times New Roman&amp;quot;, serif; background-color: transparent; font-variant-numeric: normal; font-variant-east-asian: normal; font-variant-alternates: normal; font-variant-position: normal; vertical-align: baseline; white-space-collapse: preserve;&quot;&gt;&lt;font style=&quot;font-size: 8px;&quot;&gt;You choose to investigate further, closely examining the map Mia is holding and the details of the Suburbano area displayed on it. Your thorough scrutiny reveals several previously unnoticed landmarks and hidden spots that could prove vital. However, Mia, noticing your intense focus and the way you eye the map, becomes suspicious.&lt;/font&gt;&lt;/span&gt;&lt;/span&gt;" style="rounded=0;whiteSpace=wrap;html=1;" parent="WIyWlLk6GJQsqaUBKTNV-1" vertex="1">
          <mxGeometry x="-370" y="1557.5" width="240" height="120" as="geometry" />
        </mxCell>
        <mxCell id="48kii7HsobEptYmwwad2-41" style="edgeStyle=orthogonalEdgeStyle;rounded=0;orthogonalLoop=1;jettySize=auto;html=1;entryX=0.5;entryY=0;entryDx=0;entryDy=0;" parent="WIyWlLk6GJQsqaUBKTNV-1" source="48kii7HsobEptYmwwad2-40" target="48kii7HsobEptYmwwad2-43" edge="1">
          <mxGeometry relative="1" as="geometry">
            <mxPoint x="279.9999999999998" y="1697.5" as="targetPoint" />
          </mxGeometry>
        </mxCell>
        <mxCell id="48kii7HsobEptYmwwad2-40" value="&lt;span&gt;&lt;/span&gt;&lt;span id=&quot;docs-internal-guid-4ef7a682-7fff-d99e-86c1-4532dfaaa815&quot;&gt;&lt;span style=&quot;font-family: &amp;quot;Times New Roman&amp;quot;, serif; background-color: transparent; font-variant-numeric: normal; font-variant-east-asian: normal; font-variant-alternates: normal; font-variant-position: normal; vertical-align: baseline; white-space-collapse: preserve;&quot;&gt;&lt;font style=&quot;font-size: 8px;&quot;&gt;You decide to use your intelligence to assess the situation. Analyzing the surroundings and Mia&#39;s behavior, you quickly piece together potential escape routes and hidden paths that could aid in your heist. Your keen mind helps you map out a few crucial shortcuts and safe zones. Noticing your perceptive abilities, Mia approaches you with a curious yet friendly demeanor. She clutches a map but seems less guarded.&lt;/font&gt;&lt;/span&gt;&lt;/span&gt;" style="rounded=0;whiteSpace=wrap;html=1;" parent="WIyWlLk6GJQsqaUBKTNV-1" vertex="1">
          <mxGeometry x="160" y="1555" width="240" height="115" as="geometry" />
        </mxCell>
        <mxCell id="48kii7HsobEptYmwwad2-47" style="edgeStyle=orthogonalEdgeStyle;rounded=0;orthogonalLoop=1;jettySize=auto;html=1;entryX=0.5;entryY=0;entryDx=0;entryDy=0;" parent="WIyWlLk6GJQsqaUBKTNV-1" source="48kii7HsobEptYmwwad2-43" target="48kii7HsobEptYmwwad2-46" edge="1">
          <mxGeometry relative="1" as="geometry" />
        </mxCell>
        <mxCell id="48kii7HsobEptYmwwad2-43" value="&lt;font style=&quot;font-size: 8px;&quot;&gt;&lt;i&gt;Hi, have you seen any papers that have some directions&lt;/i&gt;&lt;/font&gt;&lt;div&gt;&lt;font style=&quot;font-size: 8px;&quot;&gt;&lt;i&gt;&amp;nbsp;on it? Anyway, I&#39;ve heard that you guys have&lt;/i&gt;&lt;/font&gt;&lt;/div&gt;&lt;div&gt;&lt;i&gt;&lt;font style=&quot;font-size: 8px;&quot;&gt;&amp;nbsp;something&amp;nbsp;&lt;/font&gt;&lt;span style=&quot;font-size: 8px; background-color: initial;&quot;&gt;to do? Am I right?!&quot;&lt;/span&gt;&lt;/i&gt;&lt;/div&gt;" style="shape=parallelogram;perimeter=parallelogramPerimeter;whiteSpace=wrap;html=1;fixedSize=1;" parent="WIyWlLk6GJQsqaUBKTNV-1" vertex="1">
          <mxGeometry x="160" y="1697.5" width="240" height="60" as="geometry" />
        </mxCell>
        <mxCell id="48kii7HsobEptYmwwad2-57" style="edgeStyle=orthogonalEdgeStyle;rounded=0;orthogonalLoop=1;jettySize=auto;html=1;entryX=1;entryY=0.5;entryDx=0;entryDy=0;" parent="WIyWlLk6GJQsqaUBKTNV-1" source="48kii7HsobEptYmwwad2-46" target="48kii7HsobEptYmwwad2-55" edge="1">
          <mxGeometry relative="1" as="geometry">
            <Array as="points">
              <mxPoint x="280" y="1960" />
            </Array>
          </mxGeometry>
        </mxCell>
        <mxCell id="48kii7HsobEptYmwwad2-46" value="&lt;span&gt;&lt;/span&gt;&lt;font style=&quot;font-size: 9px;&quot;&gt;Your sharp mind and detailed observations seem to have earned Mia&#39;s respect. She appears interested in what you know, and her willingness to engage suggests she might be open to an alliance or at least providing useful information.&lt;/font&gt;" style="rounded=0;whiteSpace=wrap;html=1;" parent="WIyWlLk6GJQsqaUBKTNV-1" vertex="1">
          <mxGeometry x="160" y="1787.5" width="240" height="80" as="geometry" />
        </mxCell>
        <mxCell id="48kii7HsobEptYmwwad2-51" style="edgeStyle=orthogonalEdgeStyle;rounded=0;orthogonalLoop=1;jettySize=auto;html=1;" parent="WIyWlLk6GJQsqaUBKTNV-1" source="48kii7HsobEptYmwwad2-48" target="48kii7HsobEptYmwwad2-49" edge="1">
          <mxGeometry relative="1" as="geometry" />
        </mxCell>
        <mxCell id="48kii7HsobEptYmwwad2-48" value="&lt;i&gt;&lt;font style=&quot;font-size: 8px;&quot;&gt;Hi, have you seen any papers that have some directions&amp;nbsp;&lt;/font&gt;&lt;/i&gt;&lt;div&gt;&lt;i&gt;&lt;font style=&quot;font-size: 8px;&quot;&gt;on it? Anyway, I&#39;ve heard that you guys have something&amp;nbsp;&lt;/font&gt;&lt;/i&gt;&lt;/div&gt;&lt;div&gt;&lt;i&gt;&lt;font style=&quot;font-size: 8px;&quot;&gt;to do? Am I right?!&amp;nbsp;&lt;/font&gt;&lt;/i&gt;&lt;/div&gt;" style="shape=parallelogram;perimeter=parallelogramPerimeter;whiteSpace=wrap;html=1;fixedSize=1;" parent="WIyWlLk6GJQsqaUBKTNV-1" vertex="1">
          <mxGeometry x="-370" y="1707.5" width="240" height="60" as="geometry" />
        </mxCell>
        <mxCell id="48kii7HsobEptYmwwad2-56" style="edgeStyle=orthogonalEdgeStyle;rounded=0;orthogonalLoop=1;jettySize=auto;html=1;entryX=0;entryY=0.5;entryDx=0;entryDy=0;" parent="WIyWlLk6GJQsqaUBKTNV-1" source="48kii7HsobEptYmwwad2-49" target="48kii7HsobEptYmwwad2-55" edge="1">
          <mxGeometry relative="1" as="geometry">
            <Array as="points">
              <mxPoint x="-250" y="1960" />
            </Array>
          </mxGeometry>
        </mxCell>
        <mxCell id="48kii7HsobEptYmwwad2-49" value="&lt;span&gt;&lt;/span&gt;&lt;span id=&quot;docs-internal-guid-4ef7a682-7fff-d99e-86c1-4532dfaaa815&quot;&gt;&lt;span style=&quot;font-family: &amp;quot;Times New Roman&amp;quot;, serif; background-color: transparent; font-variant-numeric: normal; font-variant-east-asian: normal; font-variant-alternates: normal; font-variant-position: normal; vertical-align: baseline; white-space-collapse: preserve;&quot;&gt;&lt;font style=&quot;font-size: 8px;&quot;&gt;Your detailed investigation has made Mia wary. She clutches her map more tightly and her eyes dart around as if she&#39;s considering her options. The suspicion in her voice suggests she might alert others or take steps to hinder your plans, making it clear that gaining her trust will be more challenging.&lt;/font&gt;&lt;/span&gt;&lt;/span&gt;" style="rounded=0;whiteSpace=wrap;html=1;" parent="WIyWlLk6GJQsqaUBKTNV-1" vertex="1">
          <mxGeometry x="-370" y="1797.5" width="240" height="100" as="geometry" />
        </mxCell>
        <mxCell id="48kii7HsobEptYmwwad2-54" style="edgeStyle=orthogonalEdgeStyle;rounded=0;orthogonalLoop=1;jettySize=auto;html=1;" parent="WIyWlLk6GJQsqaUBKTNV-1" source="48kii7HsobEptYmwwad2-52" target="48kii7HsobEptYmwwad2-26" edge="1">
          <mxGeometry relative="1" as="geometry" />
        </mxCell>
        <mxCell id="48kii7HsobEptYmwwad2-52" value="&lt;span&gt;&lt;/span&gt;&lt;font style=&quot;font-size: 9px;&quot;&gt;As the heat continues to beat down outside the store, Mia Martin stands at the entrance, struggling to breathe. Her curly hair is slightly disheveled, and her brown cardigan and fitted skinny romper cling to her in the oppressive heat. She repeatedly glances at the map in her hand and scans the area of Suburbano with sharp eyes. You recognize Mia as a white hacker, a young lady responsible for orchestrating many covert operations in the city, including your own group&#39;s activities. Her phone keeps buzzing with alerts, and the news on the TV screens in the mini-shop flashes with breaking reports. The tension is palpable, and you know that your next move could either earn her trust or raise her suspicion.&lt;/font&gt;" style="rounded=0;whiteSpace=wrap;html=1;" parent="WIyWlLk6GJQsqaUBKTNV-1" vertex="1">
          <mxGeometry x="-110" y="1300" width="240" height="230" as="geometry" />
        </mxCell>
        <mxCell id="48kii7HsobEptYmwwad2-61" style="edgeStyle=orthogonalEdgeStyle;rounded=0;orthogonalLoop=1;jettySize=auto;html=1;" parent="WIyWlLk6GJQsqaUBKTNV-1" source="48kii7HsobEptYmwwad2-55" target="48kii7HsobEptYmwwad2-60" edge="1">
          <mxGeometry relative="1" as="geometry" />
        </mxCell>
        <mxCell id="48kii7HsobEptYmwwad2-55" value="&lt;span&gt;&lt;/span&gt;&lt;span id=&quot;docs-internal-guid-4ef7a682-7fff-d99e-86c1-4532dfaaa815&quot;&gt;&lt;span style=&quot;font-family: &amp;quot;Times New Roman&amp;quot;, serif; background-color: transparent; font-variant-numeric: normal; font-variant-east-asian: normal; font-variant-alternates: normal; font-variant-position: normal; vertical-align: baseline; white-space-collapse: preserve;&quot;&gt;&lt;font style=&quot;font-size: 18px;&quot;&gt;&lt;b&gt;THE UNEXPECTED DEAL&lt;/b&gt;&lt;/font&gt;&lt;/span&gt;&lt;/span&gt;" style="rounded=0;whiteSpace=wrap;html=1;" parent="WIyWlLk6GJQsqaUBKTNV-1" vertex="1">
          <mxGeometry x="-90" y="1930" width="240" height="60" as="geometry" />
        </mxCell>
        <mxCell id="vWk4RYzjq7Nbljxg8Uhb-0" style="edgeStyle=orthogonalEdgeStyle;rounded=0;orthogonalLoop=1;jettySize=auto;html=1;" parent="WIyWlLk6GJQsqaUBKTNV-1" source="48kii7HsobEptYmwwad2-60" target="48kii7HsobEptYmwwad2-62" edge="1">
          <mxGeometry relative="1" as="geometry" />
        </mxCell>
        <mxCell id="48kii7HsobEptYmwwad2-60" value="&lt;span style=&quot;font-size: 8px;&quot;&gt;&lt;i&gt;“Oh I see, let’s have a deal then. I’ll be with you guys&lt;/i&gt;&lt;/span&gt;&lt;div&gt;&lt;span style=&quot;font-size: 8px;&quot;&gt;&lt;i&gt;&amp;nbsp;for the rest of this days I just need to find my things&lt;/i&gt;&lt;/span&gt;&lt;/div&gt;&lt;div&gt;&lt;span style=&quot;font-size: 8px;&quot;&gt;&lt;i&gt;&amp;nbsp;back to me”&lt;/i&gt;&lt;/span&gt;&lt;br&gt;&lt;/div&gt;" style="shape=parallelogram;perimeter=parallelogramPerimeter;whiteSpace=wrap;html=1;fixedSize=1;" parent="WIyWlLk6GJQsqaUBKTNV-1" vertex="1">
          <mxGeometry x="-90" y="2020" width="240" height="60" as="geometry" />
        </mxCell>
        <mxCell id="vWk4RYzjq7Nbljxg8Uhb-1" style="edgeStyle=orthogonalEdgeStyle;rounded=0;orthogonalLoop=1;jettySize=auto;html=1;" parent="WIyWlLk6GJQsqaUBKTNV-1" source="48kii7HsobEptYmwwad2-62" target="48kii7HsobEptYmwwad2-63" edge="1">
          <mxGeometry relative="1" as="geometry" />
        </mxCell>
        <mxCell id="48kii7HsobEptYmwwad2-62" value="&lt;span&gt;&lt;/span&gt;&lt;span id=&quot;docs-internal-guid-9dbe816c-7fff-2175-aaa6-e446ceecff5d&quot;&gt;&lt;span style=&quot;font-family: &amp;quot;Times New Roman&amp;quot;, serif; background-color: transparent; font-variant-numeric: normal; font-variant-east-asian: normal; font-variant-alternates: normal; font-variant-position: normal; vertical-align: baseline; white-space-collapse: preserve;&quot;&gt;&lt;font style=&quot;font-size: 9px;&quot;&gt;The Group of Thieves came to the coffeeshop to talk about the deal that Ms. Mia wanted to talk about. &lt;/font&gt;&lt;/span&gt;&lt;/span&gt;" style="rounded=0;whiteSpace=wrap;html=1;" parent="WIyWlLk6GJQsqaUBKTNV-1" vertex="1">
          <mxGeometry x="-90" y="2100" width="240" height="70" as="geometry" />
        </mxCell>
        <mxCell id="48kii7HsobEptYmwwad2-63" value="&lt;span&gt;&lt;/span&gt;&lt;span id=&quot;docs-internal-guid-9dbe816c-7fff-2175-aaa6-e446ceecff5d&quot;&gt;&lt;span style=&quot;font-family: &amp;quot;Times New Roman&amp;quot;, serif; background-color: transparent; font-variant-numeric: normal; font-variant-east-asian: normal; font-variant-alternates: normal; font-variant-position: normal; vertical-align: baseline; white-space-collapse: preserve;&quot;&gt;&lt;font style=&quot;font-size: 9px;&quot;&gt;You move along the to the coffee shop that is located on near the river in Alegria for a minutes of walk while the sun is killing because of heat there’s still enough wind that covers it up before Ms. Mia stops and removes her shades/sunglasses&lt;/font&gt;&lt;/span&gt;&lt;/span&gt;" style="rounded=0;whiteSpace=wrap;html=1;" parent="WIyWlLk6GJQsqaUBKTNV-1" vertex="1">
          <mxGeometry x="-90" y="2190" width="240" height="70" as="geometry" />
        </mxCell>
        <mxCell id="vWk4RYzjq7Nbljxg8Uhb-5" style="edgeStyle=orthogonalEdgeStyle;rounded=0;orthogonalLoop=1;jettySize=auto;html=1;entryX=0.5;entryY=0;entryDx=0;entryDy=0;" parent="WIyWlLk6GJQsqaUBKTNV-1" source="48kii7HsobEptYmwwad2-64" target="48kii7HsobEptYmwwad2-65" edge="1">
          <mxGeometry relative="1" as="geometry" />
        </mxCell>
        <mxCell id="48kii7HsobEptYmwwad2-64" value="&lt;div&gt;&lt;span style=&quot;font-size: 8px;&quot;&gt;&lt;i&gt;&amp;nbsp;“Are you guys hungry or you just wanna have a sip of iced coffee? But wait have you guys noticed that there’s&amp;nbsp;&lt;/i&gt;&lt;/span&gt;&lt;/div&gt;&lt;div&gt;&lt;span style=&quot;font-size: 8px;&quot;&gt;&lt;i&gt;something wrong I think there’s someone who keeps&lt;/i&gt;&lt;/span&gt;&lt;/div&gt;&lt;div&gt;&lt;span style=&quot;font-size: 8px;&quot;&gt;&lt;i&gt;&amp;nbsp;following us”&lt;/i&gt;&lt;/span&gt;&lt;br&gt;&lt;/div&gt;" style="shape=parallelogram;perimeter=parallelogramPerimeter;whiteSpace=wrap;html=1;fixedSize=1;" parent="WIyWlLk6GJQsqaUBKTNV-1" vertex="1">
          <mxGeometry x="-100" y="2278" width="240" height="72" as="geometry" />
        </mxCell>
        <mxCell id="jJsiZ15fsqgFTS8ckJMx-0" style="edgeStyle=orthogonalEdgeStyle;rounded=0;orthogonalLoop=1;jettySize=auto;html=1;" parent="WIyWlLk6GJQsqaUBKTNV-1" source="48kii7HsobEptYmwwad2-65" target="vWk4RYzjq7Nbljxg8Uhb-8" edge="1">
          <mxGeometry relative="1" as="geometry" />
        </mxCell>
        <mxCell id="48kii7HsobEptYmwwad2-65" value="&lt;span&gt;&lt;/span&gt;&lt;span id=&quot;docs-internal-guid-9dbe816c-7fff-2175-aaa6-e446ceecff5d&quot;&gt;&lt;span style=&quot;font-family: &amp;quot;Times New Roman&amp;quot;, serif; background-color: transparent; font-variant-numeric: normal; font-variant-east-asian: normal; font-variant-alternates: normal; font-variant-position: normal; vertical-align: baseline; white-space-collapse: preserve;&quot;&gt;&lt;font style=&quot;font-size: 9px;&quot;&gt;You’re going to make a Perception check to see if you can feel what Ms. Mia have been . &quot;Perception&quot; is listed on your character sheet under “Skills.”&lt;/font&gt;&lt;/span&gt;&lt;/span&gt;" style="rounded=0;whiteSpace=wrap;html=1;" parent="WIyWlLk6GJQsqaUBKTNV-1" vertex="1">
          <mxGeometry x="-100" y="2370" width="240" height="60" as="geometry" />
        </mxCell>
        <mxCell id="vWk4RYzjq7Nbljxg8Uhb-4" style="edgeStyle=orthogonalEdgeStyle;rounded=0;orthogonalLoop=1;jettySize=auto;html=1;entryX=0.542;entryY=0.022;entryDx=0;entryDy=0;entryPerimeter=0;" parent="WIyWlLk6GJQsqaUBKTNV-1" source="48kii7HsobEptYmwwad2-63" target="48kii7HsobEptYmwwad2-64" edge="1">
          <mxGeometry relative="1" as="geometry" />
        </mxCell>
        <mxCell id="ghF-6BT86m63EPEGOQ4o-1" style="edgeStyle=orthogonalEdgeStyle;rounded=0;orthogonalLoop=1;jettySize=auto;html=1;entryX=0;entryY=0.5;entryDx=0;entryDy=0;" parent="WIyWlLk6GJQsqaUBKTNV-1" source="vWk4RYzjq7Nbljxg8Uhb-8" target="ghF-6BT86m63EPEGOQ4o-6" edge="1">
          <mxGeometry relative="1" as="geometry">
            <mxPoint x="160" y="2505" as="targetPoint" />
          </mxGeometry>
        </mxCell>
        <mxCell id="ghF-6BT86m63EPEGOQ4o-2" value="&lt;font style=&quot;font-size: 8px;&quot;&gt;if dc is 10 higher&lt;/font&gt;" style="edgeLabel;html=1;align=center;verticalAlign=middle;resizable=0;points=[];" parent="ghF-6BT86m63EPEGOQ4o-1" vertex="1" connectable="0">
          <mxGeometry x="-0.5783" y="-1" relative="1" as="geometry">
            <mxPoint x="29" y="-1" as="offset" />
          </mxGeometry>
        </mxCell>
        <mxCell id="ghF-6BT86m63EPEGOQ4o-3" style="edgeStyle=orthogonalEdgeStyle;rounded=0;orthogonalLoop=1;jettySize=auto;html=1;" parent="WIyWlLk6GJQsqaUBKTNV-1" source="vWk4RYzjq7Nbljxg8Uhb-8" target="ghF-6BT86m63EPEGOQ4o-5" edge="1">
          <mxGeometry relative="1" as="geometry">
            <mxPoint x="-110" y="2505" as="targetPoint" />
          </mxGeometry>
        </mxCell>
        <mxCell id="ghF-6BT86m63EPEGOQ4o-4" value="&lt;font style=&quot;font-size: 8px;&quot;&gt;if dc is lower&lt;/font&gt;" style="edgeLabel;html=1;align=center;verticalAlign=middle;resizable=0;points=[];" parent="ghF-6BT86m63EPEGOQ4o-3" vertex="1" connectable="0">
          <mxGeometry x="-0.0904" relative="1" as="geometry">
            <mxPoint as="offset" />
          </mxGeometry>
        </mxCell>
        <mxCell id="vWk4RYzjq7Nbljxg8Uhb-8" value="&lt;span style=&quot;font-size: 8px;&quot;&gt;&lt;b&gt;PERCEPTION&lt;br&gt;CHECK&lt;/b&gt;&lt;/span&gt;" style="rhombus;whiteSpace=wrap;html=1;" parent="WIyWlLk6GJQsqaUBKTNV-1" vertex="1">
          <mxGeometry x="-35" y="2450" width="110" height="110" as="geometry" />
        </mxCell>
        <mxCell id="ghF-6BT86m63EPEGOQ4o-8" style="edgeStyle=orthogonalEdgeStyle;rounded=0;orthogonalLoop=1;jettySize=auto;html=1;" parent="WIyWlLk6GJQsqaUBKTNV-1" source="ghF-6BT86m63EPEGOQ4o-5" edge="1">
          <mxGeometry relative="1" as="geometry">
            <mxPoint y="2620" as="targetPoint" />
            <Array as="points">
              <mxPoint x="-290" y="2610" />
              <mxPoint x="1" y="2610" />
            </Array>
          </mxGeometry>
        </mxCell>
        <mxCell id="ghF-6BT86m63EPEGOQ4o-5" value="&lt;span&gt;&lt;/span&gt;&lt;span id=&quot;docs-internal-guid-9dbe816c-7fff-2175-aaa6-e446ceecff5d&quot;&gt;&lt;span style=&quot;font-family: &amp;quot;Times New Roman&amp;quot;, serif; background-color: transparent; font-variant-numeric: normal; font-variant-east-asian: normal; font-variant-alternates: normal; font-variant-position: normal; vertical-align: baseline; white-space-collapse: preserve;&quot;&gt;&lt;font style=&quot;font-size: 9px;&quot;&gt;As they tread through the dense underbrush of the thorny forest, an unexpected noise pierces the silence, catching their attention. It&#39;s not a sound they recognize, but it resonates with a hint of mystery, stirring their curiosity. The rustle of leaves and the crackle of branches beneath unseen movements add an eerie ambiance to the atmosphere, heightening their senses. With each step forward, the enigmatic source of the noise beckons them deeper into the heart of the thorny forest, where secrets lie waiting to be unraveled.&lt;/font&gt;&lt;/span&gt;&lt;/span&gt;" style="rounded=0;whiteSpace=wrap;html=1;" parent="WIyWlLk6GJQsqaUBKTNV-1" vertex="1">
          <mxGeometry x="-410" y="2432.5" width="240" height="145" as="geometry" />
        </mxCell>
        <mxCell id="ghF-6BT86m63EPEGOQ4o-10" style="edgeStyle=orthogonalEdgeStyle;rounded=0;orthogonalLoop=1;jettySize=auto;html=1;" parent="WIyWlLk6GJQsqaUBKTNV-1" source="ghF-6BT86m63EPEGOQ4o-6" edge="1">
          <mxGeometry relative="1" as="geometry">
            <mxPoint y="2610" as="targetPoint" />
            <Array as="points">
              <mxPoint x="320" y="2610" />
            </Array>
          </mxGeometry>
        </mxCell>
        <mxCell id="ghF-6BT86m63EPEGOQ4o-6" value="&lt;span&gt;&lt;/span&gt;&lt;span id=&quot;docs-internal-guid-9dbe816c-7fff-2175-aaa6-e446ceecff5d&quot;&gt;&lt;span style=&quot;font-family: &amp;quot;Times New Roman&amp;quot;, serif; background-color: transparent; font-variant-numeric: normal; font-variant-east-asian: normal; font-variant-alternates: normal; font-variant-position: normal; vertical-align: baseline; white-space-collapse: preserve;&quot;&gt;&lt;font style=&quot;font-size: 9px;&quot;&gt;While walking Vlad have been accidentally crashed to a Alpha Cooper who’s running faster, The dog looks at him angrily and keeps barking at him not until Esmeralda shout like an irritated woman. &lt;/font&gt;&lt;/span&gt;&lt;/span&gt;" style="rounded=0;whiteSpace=wrap;html=1;" parent="WIyWlLk6GJQsqaUBKTNV-1" vertex="1">
          <mxGeometry x="200" y="2475" width="240" height="60" as="geometry" />
        </mxCell>
        <mxCell id="ghF-6BT86m63EPEGOQ4o-12" style="edgeStyle=orthogonalEdgeStyle;rounded=0;orthogonalLoop=1;jettySize=auto;html=1;entryX=0.5;entryY=0;entryDx=0;entryDy=0;" parent="WIyWlLk6GJQsqaUBKTNV-1" source="ghF-6BT86m63EPEGOQ4o-7" target="ghF-6BT86m63EPEGOQ4o-14" edge="1">
          <mxGeometry relative="1" as="geometry">
            <mxPoint x="-120" y="2740" as="targetPoint" />
            <Array as="points">
              <mxPoint x="-120" y="2625" />
            </Array>
          </mxGeometry>
        </mxCell>
        <mxCell id="uCVlb8cVJ9TNwtC1Tqcg-2" value="If stealth" style="edgeLabel;html=1;align=center;verticalAlign=middle;resizable=0;points=[];rotation=-90;" parent="ghF-6BT86m63EPEGOQ4o-12" vertex="1" connectable="0">
          <mxGeometry x="0.0848" y="1" relative="1" as="geometry">
            <mxPoint x="-1" y="14" as="offset" />
          </mxGeometry>
        </mxCell>
        <mxCell id="uCVlb8cVJ9TNwtC1Tqcg-1" style="edgeStyle=orthogonalEdgeStyle;rounded=0;orthogonalLoop=1;jettySize=auto;html=1;entryX=0.5;entryY=0;entryDx=0;entryDy=0;" parent="WIyWlLk6GJQsqaUBKTNV-1" source="ghF-6BT86m63EPEGOQ4o-7" target="uCVlb8cVJ9TNwtC1Tqcg-0" edge="1">
          <mxGeometry relative="1" as="geometry">
            <Array as="points">
              <mxPoint x="140" y="2625" />
            </Array>
          </mxGeometry>
        </mxCell>
        <mxCell id="uCVlb8cVJ9TNwtC1Tqcg-3" value="If charisma" style="edgeLabel;html=1;align=center;verticalAlign=middle;resizable=0;points=[];rotation=-90;" parent="uCVlb8cVJ9TNwtC1Tqcg-1" vertex="1" connectable="0">
          <mxGeometry x="0.1406" y="-2" relative="1" as="geometry">
            <mxPoint x="2" y="12" as="offset" />
          </mxGeometry>
        </mxCell>
        <mxCell id="ghF-6BT86m63EPEGOQ4o-7" value="&lt;font style=&quot;font-size: 8px;&quot;&gt;As a player how&amp;nbsp;&lt;/font&gt;&lt;div&gt;&lt;font style=&quot;font-size: 8px;&quot;&gt;will you respond in this&amp;nbsp;&lt;/font&gt;&lt;div&gt;&lt;font style=&quot;font-size: 8px;&quot;&gt;situation?&amp;nbsp;&lt;/font&gt;&lt;/div&gt;&lt;/div&gt;" style="rhombus;whiteSpace=wrap;html=1;" parent="WIyWlLk6GJQsqaUBKTNV-1" vertex="1">
          <mxGeometry x="-35" y="2570" width="110" height="110" as="geometry" />
        </mxCell>
        <mxCell id="uCVlb8cVJ9TNwtC1Tqcg-8" style="edgeStyle=orthogonalEdgeStyle;rounded=0;orthogonalLoop=1;jettySize=auto;html=1;" parent="WIyWlLk6GJQsqaUBKTNV-1" source="ghF-6BT86m63EPEGOQ4o-14" target="uCVlb8cVJ9TNwtC1Tqcg-7" edge="1">
          <mxGeometry relative="1" as="geometry" />
        </mxCell>
        <mxCell id="ghF-6BT86m63EPEGOQ4o-14" value="&lt;span&gt;&lt;/span&gt;&lt;span id=&quot;docs-internal-guid-9dbe816c-7fff-2175-aaa6-e446ceecff5d&quot;&gt;&lt;span style=&quot;font-family: &amp;quot;Times New Roman&amp;quot;, serif; background-color: transparent; font-variant-numeric: normal; font-variant-east-asian: normal; font-variant-alternates: normal; font-variant-position: normal; vertical-align: baseline; white-space-collapse: preserve;&quot;&gt;&lt;font style=&quot;font-size: 9px;&quot;&gt;If you use stealth, the players will slowly turn to the other side and run. Carefully and silently, they pivot on their heels, their movements calculated to avoid detection. Each step they take is deliberate, muscles tense with the effort to remain unnoticed as they begin to slip away. Gradually, their pace quickens, transitioning from a cautious walk to a light jog, and finally, to a full sprint as they put distance between themselves and the source of the noise, hearts pounding with the thrill of their escape.&lt;/font&gt;&lt;/span&gt;&lt;/span&gt;" style="rounded=0;whiteSpace=wrap;html=1;" parent="WIyWlLk6GJQsqaUBKTNV-1" vertex="1">
          <mxGeometry x="-240" y="2760" width="240" height="140" as="geometry" />
        </mxCell>
        <mxCell id="uCVlb8cVJ9TNwtC1Tqcg-9" style="edgeStyle=orthogonalEdgeStyle;rounded=0;orthogonalLoop=1;jettySize=auto;html=1;entryX=0.5;entryY=0;entryDx=0;entryDy=0;" parent="WIyWlLk6GJQsqaUBKTNV-1" source="uCVlb8cVJ9TNwtC1Tqcg-0" target="uCVlb8cVJ9TNwtC1Tqcg-7" edge="1">
          <mxGeometry relative="1" as="geometry" />
        </mxCell>
        <mxCell id="uCVlb8cVJ9TNwtC1Tqcg-0" value="&lt;span&gt;&lt;/span&gt;&lt;span id=&quot;docs-internal-guid-9dbe816c-7fff-2175-aaa6-e446ceecff5d&quot;&gt;&lt;span style=&quot;font-family: &amp;quot;Times New Roman&amp;quot;, serif; background-color: transparent; font-variant-numeric: normal; font-variant-east-asian: normal; font-variant-alternates: normal; font-variant-position: normal; vertical-align: baseline; white-space-collapse: preserve;&quot;&gt;&lt;font style=&quot;font-size: 9px;&quot;&gt;If you use charisma, they will get the dog&#39;s attention, and each of them will go just like a flash. With a confident and commanding voice, they draw the dog&#39;s focus, captivating it completely. The moment the dog is enthralled, they seize the opportunity, darting off in unison. Their movements are swift and coordinated, disappearing in a blur, leaving the dog momentarily bewildered by their sudden and synchronized departure.&lt;/font&gt;&lt;/span&gt;&lt;/span&gt;" style="rounded=0;whiteSpace=wrap;html=1;" parent="WIyWlLk6GJQsqaUBKTNV-1" vertex="1">
          <mxGeometry x="20" y="2760" width="240" height="140" as="geometry" />
        </mxCell>
        <mxCell id="uCVlb8cVJ9TNwtC1Tqcg-24" style="edgeStyle=orthogonalEdgeStyle;rounded=0;orthogonalLoop=1;jettySize=auto;html=1;" parent="WIyWlLk6GJQsqaUBKTNV-1" source="uCVlb8cVJ9TNwtC1Tqcg-7" target="uCVlb8cVJ9TNwtC1Tqcg-10" edge="1">
          <mxGeometry relative="1" as="geometry" />
        </mxCell>
        <mxCell id="uCVlb8cVJ9TNwtC1Tqcg-7" value="&lt;span&gt;&lt;/span&gt;&lt;span id=&quot;docs-internal-guid-7afa188c-7fff-9990-d6df-7a07e2f7b8f1&quot;&gt;&lt;span style=&quot;font-family: &amp;quot;Times New Roman&amp;quot;, serif; background-color: transparent; font-variant-numeric: normal; font-variant-east-asian: normal; font-variant-alternates: normal; font-variant-position: normal; vertical-align: baseline; white-space-collapse: preserve;&quot;&gt;&lt;font style=&quot;font-size: 18px;&quot;&gt;&lt;b&gt;MOVING FORWARD&lt;/b&gt;&lt;/font&gt;&lt;/span&gt;&lt;/span&gt;" style="rounded=0;whiteSpace=wrap;html=1;" parent="WIyWlLk6GJQsqaUBKTNV-1" vertex="1">
          <mxGeometry x="-110" y="2960" width="240" height="50" as="geometry" />
        </mxCell>
        <mxCell id="uCVlb8cVJ9TNwtC1Tqcg-18" style="edgeStyle=orthogonalEdgeStyle;rounded=0;orthogonalLoop=1;jettySize=auto;html=1;entryX=0.5;entryY=0;entryDx=0;entryDy=0;" parent="WIyWlLk6GJQsqaUBKTNV-1" source="uCVlb8cVJ9TNwtC1Tqcg-10" target="uCVlb8cVJ9TNwtC1Tqcg-15" edge="1">
          <mxGeometry relative="1" as="geometry" />
        </mxCell>
        <mxCell id="uCVlb8cVJ9TNwtC1Tqcg-10" value="&lt;span&gt;&lt;/span&gt;&lt;span id=&quot;docs-internal-guid-8ea85782-7fff-ea93-23bf-06c66fc961e8&quot;&gt;&lt;span style=&quot;font-family: &amp;quot;Times New Roman&amp;quot;, serif; background-color: transparent; font-variant-numeric: normal; font-variant-east-asian: normal; font-variant-alternates: normal; font-variant-position: normal; vertical-align: baseline; white-space-collapse: preserve;&quot;&gt;&lt;font style=&quot;font-size: 8px;&quot;&gt;&amp;nbsp;You, the group of thieves, end up heading to Cafe Mezzanine in Alegria; they became their first customers of the day. Vladymyr ordered a 4 Spanish Latter but ended up being shocked since his wallet wasn’t in his pocket. He started to talk to a cute, petite, and young lady named Gar to following his payment. But Gar doesn&#39;t want to give him a chance so she tells them to go away. &lt;/font&gt;&lt;/span&gt;&lt;/span&gt;" style="rounded=0;whiteSpace=wrap;html=1;" parent="WIyWlLk6GJQsqaUBKTNV-1" vertex="1">
          <mxGeometry x="-110" y="3030" width="240" height="90" as="geometry" />
        </mxCell>
        <mxCell id="uCVlb8cVJ9TNwtC1Tqcg-11" style="edgeStyle=orthogonalEdgeStyle;rounded=0;orthogonalLoop=1;jettySize=auto;html=1;entryX=0.5;entryY=0;entryDx=0;entryDy=0;" parent="WIyWlLk6GJQsqaUBKTNV-1" source="uCVlb8cVJ9TNwtC1Tqcg-15" target="uCVlb8cVJ9TNwtC1Tqcg-16" edge="1">
          <mxGeometry relative="1" as="geometry">
            <mxPoint x="-130" y="3347" as="targetPoint" />
            <Array as="points">
              <mxPoint x="-130" y="3232" />
            </Array>
          </mxGeometry>
        </mxCell>
        <mxCell id="uCVlb8cVJ9TNwtC1Tqcg-12" value="If persuasion" style="edgeLabel;html=1;align=center;verticalAlign=middle;resizable=0;points=[];rotation=-90;" parent="uCVlb8cVJ9TNwtC1Tqcg-11" vertex="1" connectable="0">
          <mxGeometry x="0.0848" y="1" relative="1" as="geometry">
            <mxPoint x="-1" y="21" as="offset" />
          </mxGeometry>
        </mxCell>
        <mxCell id="uCVlb8cVJ9TNwtC1Tqcg-13" style="edgeStyle=orthogonalEdgeStyle;rounded=0;orthogonalLoop=1;jettySize=auto;html=1;entryX=0.5;entryY=0;entryDx=0;entryDy=0;" parent="WIyWlLk6GJQsqaUBKTNV-1" source="uCVlb8cVJ9TNwtC1Tqcg-15" target="uCVlb8cVJ9TNwtC1Tqcg-17" edge="1">
          <mxGeometry relative="1" as="geometry">
            <Array as="points">
              <mxPoint x="130" y="3232" />
            </Array>
          </mxGeometry>
        </mxCell>
        <mxCell id="uCVlb8cVJ9TNwtC1Tqcg-14" value="If charisma" style="edgeLabel;html=1;align=center;verticalAlign=middle;resizable=0;points=[];rotation=-90;" parent="uCVlb8cVJ9TNwtC1Tqcg-13" vertex="1" connectable="0">
          <mxGeometry x="0.1406" y="-2" relative="1" as="geometry">
            <mxPoint x="2" y="12" as="offset" />
          </mxGeometry>
        </mxCell>
        <mxCell id="uCVlb8cVJ9TNwtC1Tqcg-15" value="&lt;font style=&quot;font-size: 8px;&quot;&gt;As a player how&amp;nbsp;&lt;/font&gt;&lt;div&gt;&lt;font style=&quot;font-size: 8px;&quot;&gt;will you respond in this&amp;nbsp;&lt;/font&gt;&lt;div&gt;&lt;font style=&quot;font-size: 8px;&quot;&gt;situation?&amp;nbsp;&lt;/font&gt;&lt;/div&gt;&lt;/div&gt;" style="rhombus;whiteSpace=wrap;html=1;" parent="WIyWlLk6GJQsqaUBKTNV-1" vertex="1">
          <mxGeometry x="-45" y="3177" width="110" height="110" as="geometry" />
        </mxCell>
        <mxCell id="kneAseGpNHwroSivyvH5-4" style="edgeStyle=orthogonalEdgeStyle;rounded=0;orthogonalLoop=1;jettySize=auto;html=1;" edge="1" parent="WIyWlLk6GJQsqaUBKTNV-1" source="uCVlb8cVJ9TNwtC1Tqcg-16" target="kneAseGpNHwroSivyvH5-3">
          <mxGeometry relative="1" as="geometry" />
        </mxCell>
        <mxCell id="uCVlb8cVJ9TNwtC1Tqcg-16" value="&lt;span&gt;&lt;/span&gt;&lt;span id=&quot;docs-internal-guid-9dbe816c-7fff-2175-aaa6-e446ceecff5d&quot;&gt;&lt;span style=&quot;font-family: &amp;quot;Times New Roman&amp;quot;, serif; background-color: transparent; font-variant-numeric: normal; font-variant-east-asian: normal; font-variant-alternates: normal; font-variant-position: normal; vertical-align: baseline; white-space-collapse: preserve;&quot;&gt;&lt;font style=&quot;font-size: 9px;&quot;&gt;If you use persuasion, the players will hypnotize Gar to make her believe. With calm and soothing words, they weave a compelling narrative, gradually drawing Gar into a trance-like state. Their voices, rhythmic and convincing, bypass her defenses, making her more susceptible to their influence. Soon, Gar is utterly entranced, her mind molded by their persuasive charm, believing whatever they want her to accept.&lt;/font&gt;&lt;/span&gt;&lt;/span&gt;" style="rounded=0;whiteSpace=wrap;html=1;" parent="WIyWlLk6GJQsqaUBKTNV-1" vertex="1">
          <mxGeometry x="-250" y="3367" width="240" height="123" as="geometry" />
        </mxCell>
        <mxCell id="kneAseGpNHwroSivyvH5-1" style="edgeStyle=orthogonalEdgeStyle;rounded=0;orthogonalLoop=1;jettySize=auto;html=1;entryX=0.5;entryY=0;entryDx=0;entryDy=0;" edge="1" parent="WIyWlLk6GJQsqaUBKTNV-1" source="uCVlb8cVJ9TNwtC1Tqcg-17" target="uCVlb8cVJ9TNwtC1Tqcg-19">
          <mxGeometry relative="1" as="geometry" />
        </mxCell>
        <mxCell id="uCVlb8cVJ9TNwtC1Tqcg-17" value="&lt;span&gt;&lt;/span&gt;&lt;span id=&quot;docs-internal-guid-9dbe816c-7fff-2175-aaa6-e446ceecff5d&quot;&gt;&lt;span style=&quot;font-family: &amp;quot;Times New Roman&amp;quot;, serif; background-color: transparent; font-variant-numeric: normal; font-variant-east-asian: normal; font-variant-alternates: normal; font-variant-position: normal; vertical-align: baseline; white-space-collapse: preserve;&quot;&gt;&lt;font style=&quot;font-size: 9px;&quot;&gt;If you use charisma, they will get Gar&#39;s attention, and each of them will go and get their drinks. With engaging smiles and confident gestures, they effortlessly capture Gar&#39;s interest. Gar&#39;s focus is entirely on them, drawn in by their charismatic presence. Seizing the moment, they smoothly make their way to the bar, grabbing their drinks with ease, their charm leaving Gar momentarily captivated and distracted.&lt;/font&gt;&lt;/span&gt;&lt;/span&gt;" style="rounded=0;whiteSpace=wrap;html=1;" parent="WIyWlLk6GJQsqaUBKTNV-1" vertex="1">
          <mxGeometry x="10" y="3367" width="240" height="123" as="geometry" />
        </mxCell>
        <mxCell id="kneAseGpNHwroSivyvH5-10" style="edgeStyle=orthogonalEdgeStyle;rounded=0;orthogonalLoop=1;jettySize=auto;html=1;entryX=0.5;entryY=0;entryDx=0;entryDy=0;" edge="1" parent="WIyWlLk6GJQsqaUBKTNV-1" source="uCVlb8cVJ9TNwtC1Tqcg-19" target="kneAseGpNHwroSivyvH5-6">
          <mxGeometry relative="1" as="geometry">
            <Array as="points">
              <mxPoint x="130" y="3690" />
              <mxPoint x="-5" y="3690" />
            </Array>
          </mxGeometry>
        </mxCell>
        <mxCell id="uCVlb8cVJ9TNwtC1Tqcg-19" value="&lt;span&gt;&lt;/span&gt;&lt;font style=&quot;font-size: 8px;&quot;&gt;That&#39;s why Gar pointed her gun at Vlad, her eyes filled with steely resolve. The tension in the shop was palpable, and for a moment, time seemed to stand still. Isabella, always quick on her feet, drew her own weapon in a fluid motion. A single, sharp shot echoed through the room, shattering the CCTV cameras in a spray of sparks and glass. Gar, startled by the sudden action, fired her gun in a reflexive response, adding to the cacophony. But the players, anticipating this very scenario, sprang into action with practiced precision.&lt;/font&gt;" style="rounded=0;whiteSpace=wrap;html=1;" parent="WIyWlLk6GJQsqaUBKTNV-1" vertex="1">
          <mxGeometry x="10" y="3540" width="240" height="140" as="geometry" />
        </mxCell>
        <mxCell id="uCVlb8cVJ9TNwtC1Tqcg-35" style="edgeStyle=orthogonalEdgeStyle;rounded=0;orthogonalLoop=1;jettySize=auto;html=1;" parent="WIyWlLk6GJQsqaUBKTNV-1" source="uCVlb8cVJ9TNwtC1Tqcg-22" target="uCVlb8cVJ9TNwtC1Tqcg-32" edge="1">
          <mxGeometry relative="1" as="geometry" />
        </mxCell>
        <mxCell id="uCVlb8cVJ9TNwtC1Tqcg-22" value="&lt;span&gt;&lt;/span&gt;&lt;span id=&quot;docs-internal-guid-11b0bfed-7fff-7595-1d7a-41605fff211b&quot;&gt;&lt;font style=&quot;font-size: 8px;&quot;&gt;&lt;span style=&quot;font-family: &amp;quot;Times New Roman&amp;quot;, serif; color: rgb(30, 41, 59); background-color: rgb(255, 255, 255); font-variant-numeric: normal; font-variant-east-asian: normal; font-variant-alternates: normal; font-variant-position: normal; vertical-align: baseline; white-space-collapse: preserve;&quot;&gt;One day while the night looked so boring and the cold wind kept blowing in Urbano. A mysterious man had been following a group of people or thieves&#39; exploits for quite some time and had grown quite fond of them. &lt;/span&gt;&lt;span style=&quot;font-family: &amp;quot;Times New Roman&amp;quot;, serif; color: rgb(30, 41, 59); background-color: rgb(255, 255, 255); font-weight: 700; font-style: italic; font-variant-numeric: normal; font-variant-east-asian: normal; font-variant-alternates: normal; font-variant-position: normal; vertical-align: baseline; white-space-collapse: preserve;&quot;&gt;But this person knew that their lifestyle of crime would one day catch up to them, and he had a plan for when that day came. &lt;/span&gt;&lt;span style=&quot;font-family: &amp;quot;Times New Roman&amp;quot;, serif; color: rgb(30, 41, 59); background-color: rgb(255, 255, 255); font-variant-numeric: normal; font-variant-east-asian: normal; font-variant-alternates: normal; font-variant-position: normal; vertical-align: baseline; white-space-collapse: preserve;&quot;&gt;So the mysterious man decided to reach out to those men since he knew that. &lt;/span&gt;&lt;span style=&quot;font-family: &amp;quot;Times New Roman&amp;quot;, serif; background-color: transparent; font-variant-numeric: normal; font-variant-east-asian: normal; font-variant-alternates: normal; font-variant-position: normal; vertical-align: baseline; white-space-collapse: preserve;&quot;&gt;The three to four players kept being attracted to the place of Alegria, until they wanted to do something to excite them? The man suddenly came up from nowhere, and gave them some ideas. &lt;/span&gt;&lt;/font&gt;&lt;/span&gt;" style="rounded=0;whiteSpace=wrap;html=1;" parent="WIyWlLk6GJQsqaUBKTNV-1" vertex="1">
          <mxGeometry x="-150" y="4240" width="240" height="150" as="geometry" />
        </mxCell>
        <mxCell id="uCVlb8cVJ9TNwtC1Tqcg-28" style="edgeStyle=orthogonalEdgeStyle;rounded=0;orthogonalLoop=1;jettySize=auto;html=1;entryX=0.5;entryY=0;entryDx=0;entryDy=0;" parent="WIyWlLk6GJQsqaUBKTNV-1" source="uCVlb8cVJ9TNwtC1Tqcg-32" edge="1">
          <mxGeometry relative="1" as="geometry">
            <mxPoint x="-170" y="4620" as="targetPoint" />
            <Array as="points">
              <mxPoint x="-170" y="4485" />
            </Array>
          </mxGeometry>
        </mxCell>
        <mxCell id="uCVlb8cVJ9TNwtC1Tqcg-29" value="If persuasion" style="edgeLabel;html=1;align=center;verticalAlign=middle;resizable=0;points=[];rotation=-90;" parent="uCVlb8cVJ9TNwtC1Tqcg-28" vertex="1" connectable="0">
          <mxGeometry x="0.0848" y="1" relative="1" as="geometry">
            <mxPoint x="-1" y="21" as="offset" />
          </mxGeometry>
        </mxCell>
        <mxCell id="uCVlb8cVJ9TNwtC1Tqcg-30" style="edgeStyle=orthogonalEdgeStyle;rounded=0;orthogonalLoop=1;jettySize=auto;html=1;entryX=0.5;entryY=0;entryDx=0;entryDy=0;" parent="WIyWlLk6GJQsqaUBKTNV-1" source="uCVlb8cVJ9TNwtC1Tqcg-32" target="uCVlb8cVJ9TNwtC1Tqcg-34" edge="1">
          <mxGeometry relative="1" as="geometry">
            <Array as="points">
              <mxPoint x="90" y="4485" />
            </Array>
          </mxGeometry>
        </mxCell>
        <mxCell id="uCVlb8cVJ9TNwtC1Tqcg-31" value="If charisma" style="edgeLabel;html=1;align=center;verticalAlign=middle;resizable=0;points=[];rotation=-90;" parent="uCVlb8cVJ9TNwtC1Tqcg-30" vertex="1" connectable="0">
          <mxGeometry x="0.1406" y="-2" relative="1" as="geometry">
            <mxPoint x="2" y="12" as="offset" />
          </mxGeometry>
        </mxCell>
        <mxCell id="uCVlb8cVJ9TNwtC1Tqcg-32" value="&lt;font style=&quot;font-size: 8px;&quot;&gt;As a player how&amp;nbsp;&lt;/font&gt;&lt;div&gt;&lt;font style=&quot;font-size: 8px;&quot;&gt;will you respond in this&amp;nbsp;&lt;/font&gt;&lt;div&gt;&lt;font style=&quot;font-size: 8px;&quot;&gt;situation?&amp;nbsp;&lt;/font&gt;&lt;/div&gt;&lt;/div&gt;" style="rhombus;whiteSpace=wrap;html=1;" parent="WIyWlLk6GJQsqaUBKTNV-1" vertex="1">
          <mxGeometry x="-85" y="4430" width="110" height="110" as="geometry" />
        </mxCell>
        <mxCell id="uCVlb8cVJ9TNwtC1Tqcg-36" style="edgeStyle=orthogonalEdgeStyle;rounded=0;orthogonalLoop=1;jettySize=auto;html=1;entryX=0.5;entryY=0;entryDx=0;entryDy=0;" parent="WIyWlLk6GJQsqaUBKTNV-1" edge="1">
          <mxGeometry relative="1" as="geometry">
            <mxPoint x="-170" y="4750" as="targetPoint" />
            <mxPoint x="-170" y="4700" as="sourcePoint" />
          </mxGeometry>
        </mxCell>
        <mxCell id="uCVlb8cVJ9TNwtC1Tqcg-33" value="&lt;span&gt;&lt;/span&gt;&lt;span id=&quot;docs-internal-guid-5cf182dc-7fff-10a6-0df7-bcb75c96a3a4&quot;&gt;&lt;font style=&quot;font-size: 9px;&quot;&gt;&lt;span style=&quot;font-family: &amp;quot;Times New Roman&amp;quot;, serif; background-color: transparent; font-weight: 700; font-style: italic; font-variant-numeric: normal; font-variant-east-asian: normal; font-variant-alternates: normal; font-variant-position: normal; vertical-align: baseline; white-space-collapse: preserve;&quot;&gt;First Idea: &lt;/span&gt;&lt;span style=&quot;font-family: &amp;quot;Times New Roman&amp;quot;, serif; background-color: transparent; font-style: italic; font-variant-numeric: normal; font-variant-east-asian: normal; font-variant-alternates: normal; font-variant-position: normal; vertical-align: baseline; white-space-collapse: preserve;&quot;&gt;I’ve heard that there’s a newly opened bar near the city of Urbano. (Another Combat System will appear here)&lt;/span&gt;&lt;/font&gt;&lt;/span&gt;" style="rounded=0;whiteSpace=wrap;html=1;" parent="WIyWlLk6GJQsqaUBKTNV-1" vertex="1">
          <mxGeometry x="-300" y="4400" width="240" height="80" as="geometry" />
        </mxCell>
        <mxCell id="uCVlb8cVJ9TNwtC1Tqcg-40" style="edgeStyle=orthogonalEdgeStyle;rounded=0;orthogonalLoop=1;jettySize=auto;html=1;" parent="WIyWlLk6GJQsqaUBKTNV-1" source="uCVlb8cVJ9TNwtC1Tqcg-34" target="uCVlb8cVJ9TNwtC1Tqcg-39" edge="1">
          <mxGeometry relative="1" as="geometry" />
        </mxCell>
        <mxCell id="uCVlb8cVJ9TNwtC1Tqcg-34" value="&lt;span&gt;&lt;/span&gt;&lt;span id=&quot;docs-internal-guid-fb568c26-7fff-5086-55bc-ec146b29b86d&quot;&gt;&lt;font style=&quot;font-size: 9px;&quot;&gt;&lt;span style=&quot;font-family: &amp;quot;Times New Roman&amp;quot;, serif; background-color: transparent; font-weight: 700; font-style: italic; font-variant-numeric: normal; font-variant-east-asian: normal; font-variant-alternates: normal; font-variant-position: normal; vertical-align: baseline; white-space-collapse: preserve;&quot;&gt;Second Idea: &lt;/span&gt;&lt;span style=&quot;font-family: &amp;quot;Times New Roman&amp;quot;, serif; background-color: transparent; font-style: italic; font-variant-numeric: normal; font-variant-east-asian: normal; font-variant-alternates: normal; font-variant-position: normal; vertical-align: baseline; white-space-collapse: preserve;&quot;&gt;Wanna have fun in Distrito de Entretenimiento (entertainment district) where the most famous casino is located? Where can you find money and chips are everywhere?&lt;/span&gt;&lt;/font&gt;&lt;/span&gt;" style="rounded=0;whiteSpace=wrap;html=1;" parent="WIyWlLk6GJQsqaUBKTNV-1" vertex="1">
          <mxGeometry x="-30" y="4620" width="240" height="80" as="geometry" />
        </mxCell>
        <mxCell id="uCVlb8cVJ9TNwtC1Tqcg-45" style="edgeStyle=orthogonalEdgeStyle;rounded=0;orthogonalLoop=1;jettySize=auto;html=1;" parent="WIyWlLk6GJQsqaUBKTNV-1" target="uCVlb8cVJ9TNwtC1Tqcg-44" edge="1">
          <mxGeometry relative="1" as="geometry">
            <mxPoint x="-170" y="4950" as="sourcePoint" />
          </mxGeometry>
        </mxCell>
        <mxCell id="uCVlb8cVJ9TNwtC1Tqcg-37" value="&lt;span&gt;&lt;/span&gt;&lt;font style=&quot;font-size: 8px;&quot;&gt;Intrigued by the rumor, the players decide to visit the newly opened bar near the city of Urbano. As they step inside, the vibrant atmosphere and the buzz of conversations around them draw them in. They order drinks and start to relax, but their peace is short-lived. A sudden announcement calls for participants in a high-stakes combat tournament, unveiling an unfamiliar combat system they must navigate. Despite their best efforts, the players struggle to adapt to the new rules and strategies. In the final round, they face formidable opponents and, despite a valiant effort, suffer a crushing defeat. The loss is felt deeply as they leave the bar, not only having failed to secure victory but also with the realization that they must sharpen their skills and return stronger for the challenges that lie ahead in Urbano.&lt;/font&gt;" style="rounded=0;whiteSpace=wrap;html=1;" parent="WIyWlLk6GJQsqaUBKTNV-1" vertex="1">
          <mxGeometry x="-300" y="4530" width="240" height="200" as="geometry" />
        </mxCell>
        <mxCell id="uCVlb8cVJ9TNwtC1Tqcg-46" style="edgeStyle=orthogonalEdgeStyle;rounded=0;orthogonalLoop=1;jettySize=auto;html=1;" parent="WIyWlLk6GJQsqaUBKTNV-1" source="uCVlb8cVJ9TNwtC1Tqcg-39" target="uCVlb8cVJ9TNwtC1Tqcg-44" edge="1">
          <mxGeometry relative="1" as="geometry" />
        </mxCell>
        <mxCell id="uCVlb8cVJ9TNwtC1Tqcg-39" value="&lt;span&gt;&lt;/span&gt;&lt;font style=&quot;font-size: 8px;&quot;&gt;Excited by the allure of Distrito de Entretenimiento, the players head to the renowned casino, their minds set on winning big. The dazzling lights and the clinking of chips fuel their excitement as they step inside. They split up, each trying their luck at different games—poker, roulette, and blackjack. Using a mix of strategy, charm, and sheer luck, they start accumulating winnings, the chips piling up before them. The night progresses with a series of thrilling wins, each victory boosting their confidence. By the end of the evening, they stand at the cashier&#39;s counter, exchanging their chips for a hefty sum of money. Elated and triumphant, they leave the casino, their pockets full and spirits high, knowing they have mastered the games and conquered the famous casino of Distrito de Entretenimiento.&lt;/font&gt;" style="rounded=0;whiteSpace=wrap;html=1;" parent="WIyWlLk6GJQsqaUBKTNV-1" vertex="1">
          <mxGeometry x="-30" y="4750" width="240" height="200" as="geometry" />
        </mxCell>
        <mxCell id="uCVlb8cVJ9TNwtC1Tqcg-44" value="&lt;b&gt;&lt;font style=&quot;font-size: 9px;&quot;&gt;END&lt;/font&gt;&lt;/b&gt;" style="ellipse;whiteSpace=wrap;html=1;" parent="WIyWlLk6GJQsqaUBKTNV-1" vertex="1">
          <mxGeometry x="-70" y="5010" width="60" height="40" as="geometry" />
        </mxCell>
        <mxCell id="kneAseGpNHwroSivyvH5-9" style="edgeStyle=orthogonalEdgeStyle;rounded=0;orthogonalLoop=1;jettySize=auto;html=1;entryX=0.5;entryY=0;entryDx=0;entryDy=0;" edge="1" parent="WIyWlLk6GJQsqaUBKTNV-1" source="kneAseGpNHwroSivyvH5-3" target="kneAseGpNHwroSivyvH5-6">
          <mxGeometry relative="1" as="geometry">
            <Array as="points">
              <mxPoint x="-130" y="3680" />
            </Array>
          </mxGeometry>
        </mxCell>
        <mxCell id="kneAseGpNHwroSivyvH5-3" value="&lt;span&gt;&lt;/span&gt;&lt;span id=&quot;docs-internal-guid-1e62a941-7fff-1e7c-afc4-4033c24962b3&quot;&gt;&lt;font style=&quot;font-size: 8px;&quot;&gt;&lt;span style=&quot;font-family: &amp;quot;Times New Roman&amp;quot;, serif; background-color: transparent; font-variant-numeric: normal; font-variant-east-asian: normal; font-variant-alternates: normal; font-variant-position: normal; vertical-align: baseline; white-space-collapse: preserve;&quot;&gt;That’s why Gar pointed her gun at Vlad, not until Isabella showed her gun. A shot of a gun surrounded the whole shop, Isabella shot the CCTV cameras. Until Gar also shoots her gun. &lt;/span&gt;&lt;span style=&quot;font-family: &amp;quot;Times New Roman&amp;quot;, serif; background-color: transparent; font-weight: 700; font-style: italic; font-variant-numeric: normal; font-variant-east-asian: normal; font-variant-alternates: normal; font-variant-position: normal; vertical-align: baseline; white-space-collapse: preserve;&quot;&gt;The player must kill Gar, in order to make their heist plan longer.&amp;nbsp; &lt;/span&gt;&lt;/font&gt;&lt;/span&gt;" style="rounded=0;whiteSpace=wrap;html=1;" vertex="1" parent="WIyWlLk6GJQsqaUBKTNV-1">
          <mxGeometry x="-250" y="3540" width="240" height="90" as="geometry" />
        </mxCell>
        <mxCell id="kneAseGpNHwroSivyvH5-11" style="edgeStyle=orthogonalEdgeStyle;rounded=0;orthogonalLoop=1;jettySize=auto;html=1;" edge="1" parent="WIyWlLk6GJQsqaUBKTNV-1" source="kneAseGpNHwroSivyvH5-6" target="kneAseGpNHwroSivyvH5-7">
          <mxGeometry relative="1" as="geometry">
            <Array as="points">
              <mxPoint x="-150" y="3735" />
            </Array>
          </mxGeometry>
        </mxCell>
        <mxCell id="kneAseGpNHwroSivyvH5-15" value="&lt;font style=&quot;font-size: 8px;&quot;&gt;if dc is lower 10&lt;/font&gt;" style="edgeLabel;html=1;align=center;verticalAlign=middle;resizable=0;points=[];rotation=-90;" vertex="1" connectable="0" parent="kneAseGpNHwroSivyvH5-11">
          <mxGeometry x="0.3899" y="2" relative="1" as="geometry">
            <mxPoint as="offset" />
          </mxGeometry>
        </mxCell>
        <mxCell id="kneAseGpNHwroSivyvH5-12" style="edgeStyle=orthogonalEdgeStyle;rounded=0;orthogonalLoop=1;jettySize=auto;html=1;" edge="1" parent="WIyWlLk6GJQsqaUBKTNV-1" source="kneAseGpNHwroSivyvH5-6" target="kneAseGpNHwroSivyvH5-8">
          <mxGeometry relative="1" as="geometry">
            <Array as="points">
              <mxPoint x="120" y="3735" />
            </Array>
          </mxGeometry>
        </mxCell>
        <mxCell id="kneAseGpNHwroSivyvH5-13" value="&lt;span style=&quot;font-size: 8px;&quot;&gt;if dc is 10 higher&lt;/span&gt;" style="edgeLabel;html=1;align=center;verticalAlign=middle;resizable=0;points=[];rotation=-90;" vertex="1" connectable="0" parent="kneAseGpNHwroSivyvH5-12">
          <mxGeometry x="0.3199" y="1" relative="1" as="geometry">
            <mxPoint as="offset" />
          </mxGeometry>
        </mxCell>
        <mxCell id="kneAseGpNHwroSivyvH5-6" value="&lt;span style=&quot;font-size: 8px;&quot;&gt;&lt;b&gt;STRENGTH&lt;/b&gt;&lt;/span&gt;&lt;div&gt;&lt;span style=&quot;font-size: 8px;&quot;&gt;&lt;b&gt;CHECK&lt;/b&gt;&lt;/span&gt;&lt;/div&gt;" style="rhombus;whiteSpace=wrap;html=1;" vertex="1" parent="WIyWlLk6GJQsqaUBKTNV-1">
          <mxGeometry x="-60" y="3680" width="110" height="110" as="geometry" />
        </mxCell>
        <mxCell id="kneAseGpNHwroSivyvH5-19" style="edgeStyle=orthogonalEdgeStyle;rounded=0;orthogonalLoop=1;jettySize=auto;html=1;entryX=0.5;entryY=0;entryDx=0;entryDy=0;" edge="1" parent="WIyWlLk6GJQsqaUBKTNV-1" source="kneAseGpNHwroSivyvH5-7" target="kneAseGpNHwroSivyvH5-16">
          <mxGeometry relative="1" as="geometry" />
        </mxCell>
        <mxCell id="kneAseGpNHwroSivyvH5-7" value="&lt;span&gt;&lt;/span&gt;&lt;font style=&quot;font-size: 8px;&quot;&gt;In the ensuing chaos, the players tried to eliminate Gar to extend their heist plan. However, their attempt was met with fierce resistance. Gar, fueled by adrenaline and desperation, fought back with a ferocity they hadn&#39;t anticipated. Shots were exchanged in a rapid and chaotic flurry, but the players&#39; coordination faltered.&lt;/font&gt;" style="rounded=0;whiteSpace=wrap;html=1;" vertex="1" parent="WIyWlLk6GJQsqaUBKTNV-1">
          <mxGeometry x="-270" y="3840" width="240" height="90" as="geometry" />
        </mxCell>
        <mxCell id="kneAseGpNHwroSivyvH5-8" value="&lt;span&gt;&lt;/span&gt;&lt;font style=&quot;font-size: 8px;&quot;&gt;Moving swiftly and decisively, they flanked Gar from both sides, using the chaos to their advantage. Their coordinated efforts paid off as they managed to disarm Gar, bringing her to the ground and securing her weapon. With Gar neutralized, the immediate threat was eliminated, and their heist plan was back on track. The players shared a moment of triumph, knowing they had successfully overcome a major hurdle. With Gar out of the picture, they could proceed with their mission, their path now clear and their confidence bolstered for the challenges ahead.&lt;/font&gt;" style="rounded=0;whiteSpace=wrap;html=1;" vertex="1" parent="WIyWlLk6GJQsqaUBKTNV-1">
          <mxGeometry y="3840" width="240" height="140" as="geometry" />
        </mxCell>
        <mxCell id="kneAseGpNHwroSivyvH5-16" value="&lt;span&gt;&lt;/span&gt;&lt;font style=&quot;font-size: 8px;&quot;&gt;Ultimately, Gar managed to escape, leaving the players with a sense of bitter defeat. The shop was in disarray, the heist plan in ruins, and their chance for a smooth getaway slipping through their fingers. They knew that without eliminating Gar, their mission had become significantly more complicated and dangerous. As they regrouped, they realized they would have to reassess their strategy and brace themselves for the challenges ahead.&lt;/font&gt;" style="rounded=0;whiteSpace=wrap;html=1;" vertex="1" parent="WIyWlLk6GJQsqaUBKTNV-1">
          <mxGeometry x="-270" y="3950" width="240" height="120" as="geometry" />
        </mxCell>
      </root>
    </mxGraphModel>
  </diagram>
</mxfile>
